<svg width="50" height="50" viewBox="0 0 50 50" fill="none" xmlns="http://www.w3.org/2000/svg">
<rect width="50" height="50" rx="10.8108" fill="#2A2136"/>
<path d="M37.2088 29.58L34.0234 26.3946L32.0784 24.4397C31.2547 23.616 29.9151 23.616 29.0914 24.4397L23.9511 29.58C23.2763 30.2548 23.7625 31.4059 24.7053 31.4059H30.2723H36.4546C37.4073 31.4059 37.8836 30.2548 37.2088 29.58Z" fill="#01C36D"/>
<path d="M25.937 18.5666H19.7547H14.1877C13.235 18.5666 12.7587 19.7177 13.4335 20.3925L18.5739 25.5328C19.3975 26.3565 20.7372 26.3565 21.5608 25.5328L23.5157 23.5779L26.7012 20.3925C27.366 19.7177 26.8897 18.5666 25.937 18.5666Z" fill="#01C36D"/>
</svg>
